{
  "accessors": [
    {
      "bufferView": 1,
      "componentType": 5126,
      "count": 31138,
      "max": [
        14.831144332885742,
        5.724562644958496,
        14.554024696350098
      ],
      "min": [
        -14.831144332885742,
        -0.057549118995666504,
        -14.554024696350098
      ],
      "type": "VEC3"
    },
    {
      "bufferView": 1,
      "byteOffset": 373656,
      "componentType": 5126,
      "count": 31138,
      "max": [
        1.0,
        1.0,
        1.0
      ],
      "min": [
        -1.0,
        -1.0,
        -1.0
      ],
      "type": "VEC3"
    },
    {
      "bufferView": 0,
      "componentType": 5125,
      "count": 54864,
      "type": "SCALAR"
    },
    {
      "bufferView": 1,
      "byteOffset": 747312,
      "componentType": 5126,
      "count": 336,
      "max": [
        14.831144332885742,
        5.719959259033203,
        13.554586410522461
      ],
      "min": [
        -14.831144332885742,
        2.4995388984680176,
        -13.554586410522461
      ],
      "type": "VEC3"
    },
    {
      "bufferView": 1,
      "byteOffset": 751344,
      "componentType": 5126,
      "count": 336,
      "max": [
        0.9996631145477295,
        0.9966246485710144,
        1.0
      ],
      "min": [
        -0.9996631145477295,
        -0.9730931520462036,
        -1.0
      ],
      "type": "VEC3"
    },
    {
      "bufferView": 0,
      "byteOffset": 219456,
      "componentType": 5125,
      "count": 972,
      "type": "SCALAR"
    },
    {
      "bufferView": 1,
      "byteOffset": 755376,
      "componentType": 5126,
      "count": 464,
      "max": [
        0.9149527549743652,
        0.7891246676445007,
        8.35103702545166
      ],
      "min": [
        -0.9149527549743652,
        0.011047497391700745,
        -8.35103702545166
      ],
      "type": "VEC3"
    },
    {
      "bufferView": 1,
      "byteOffset": 760944,
      "componentType": 5126,
      "count": 464,
      "max": [
        1.0,
        1.0,
        1.0
      ],
      "min": [
        -1.0,
        -1.0,
        -1.0
      ],
      "type": "VEC3"
    },
    {
      "bufferView": 0,
      "byteOffset": 223344,
      "componentType": 5125,
      "count": 696,
      "type": "SCALAR"
    },
    {
      "bufferView": 1,
      "byteOffset": 766512,
      "componentType": 5126,
      "count": 88,
      "max": [
        8.930891036987305,
        0.0020468293223530054,
        9.036109924316406
      ],
      "min": [
        -8.930891036987305,
        -0.05974758043885231,
        -9.036109924316406
      ],
      "type": "VEC3"
    },
    {
      "bufferView": 1,
      "byteOffset": 767568,
      "componentType": 5126,
      "count": 88,
      "max": [
        1.0,
        1.0,
        1.0
      ],
      "min": [
        -1.0,
        -1.0,
        -1.0
      ],
      "type": "VEC3"
    },
    {
      "bufferView": 0,
      "byteOffset": 226128,
      "componentType": 5125,
      "count": 132,
      "type": "SCALAR"
    },
    {
      "bufferView": 1,
      "byteOffset": 768624,
      "componentType": 5126,
      "count": 80,
      "max": [
        8.930891036987305,
        0.0020468293223530054,
        9.036109924316406
      ],
      "min": [
        -8.930890083312988,
        -0.05974758043885231,
        -7.228887557983398
      ],
      "type": "VEC3"
    },
    {
      "bufferView": 1,
      "byteOffset": 769584,
      "componentType": 5126,
      "count": 80,
      "max": [
        1.0,
        1.0,
        5.337271886673989e-07
      ],
      "min": [
        -1.0,
        -1.0,
        -5.337273591976555e-07
      ],
      "type": "VEC3"
    },
    {
      "bufferView": 0,
      "byteOffset": 226656,
      "componentType": 5125,
      "count": 120,
      "type": "SCALAR"
    },
    {
      "bufferView": 1,
      "byteOffset": 770544,
      "componentType": 5126,
      "count": 48,
      "max": [
        11.952535629272461,
        5.719959259033203,
        12.81982421875
      ],
      "min": [
        -11.952535629272461,
        5.670445442199707,
        -12.81982421875
      ],
      "type": "VEC3"
    },
    {
      "bufferView": 1,
      "byteOffset": 771120,
      "componentType": 5126,
      "count": 48,
      "max": [
        0.26285621523857117,
        0.9966246485710144,
        8.9553090276695e-08
      ],
      "min": [
        -0.26285621523857117,
        0.9648350477218628,
        -8.9553090276695e-08
      ],
      "type": "VEC3"
    },
    {
      "bufferView": 0,
      "byteOffset": 227136,
      "componentType": 5125,
      "count": 72,
      "type": "SCALAR"
    }
  ],
  "asset": {
    "extras": {
      "author": "xenera (https://sketchfab.com/xenera)",
      "license": "CC-BY-NC-ND-4.0 (http://creativecommons.org/licenses/by-nc-nd/4.0/)",
      "source": "https://sketchfab.com/3d-models/football-field-2235b71f1ce541a8ad583ce29b186478",
      "title": "Football Field"
    },
    "generator": "Sketchfab-12.82.3",
    "version": "2.0"
  },
  "bufferViews": [
    {
      "buffer": 0,
      "byteLength": 227424,
      "name": "floatBufferViews",
      "target": 34963
    },
    {
      "buffer": 0,
      "byteLength": 771696,
      "byteOffset": 227424,
      "byteStride": 12,
      "name": "floatBufferViews",
      "target": 34962
    }
  ],
  "buffers": [
    {
      "byteLength": 999120,
      "uri": "scene.bin"
    }
  ],
  "materials": [
    {
      "doubleSided": true,
      "name": "building_offwhite",
      "pbrMetallicRoughness": {
        "baseColorFactor": [
          0.8,
          0.710093,
          0.579521,
          1.0
        ],
        "metallicFactor": 0.0,
        "roughnessFactor": 0.8
      }
    },
    {
      "doubleSided": true,
      "name": "building_red",
      "pbrMetallicRoughness": {
        "baseColorFactor": [
          0.8,
          0.138565,
          0.114972,
          1.0
        ],
        "metallicFactor": 0.0,
        "roughnessFactor": 0.8
      }
    },
    {
      "doubleSided": true,
      "name": "metal_silver",
      "pbrMetallicRoughness": {
        "baseColorFactor": [
          0.60376,
          0.60376,
          0.60376,
          1.0
        ],
        "roughnessFactor": 0.5
      }
    },
    {
      "doubleSided": true,
      "name": "building_green2",
      "pbrMetallicRoughness": {
        "baseColorFactor": [
          0.216431,
          0.239517,
          0.112062,
          1.0
        ],
        "metallicFactor": 0.0,
        "roughnessFactor": 0.8
      }
    },
    {
      "doubleSided": true,
      "name": "building_green_light",
      "pbrMetallicRoughness": {
        "baseColorFactor": [
          0.315366,
          0.375705,
          0.155704,
          1.0
        ],
        "metallicFactor": 0.0,
        "roughnessFactor": 0.8
      }
    },
    {
      "doubleSided": true,
      "emissiveFactor": [
        1.0,
        1.0,
        1.0
      ],
      "name": "light_white"
    }
  ],
  "meshes": [
    {
      "name": "Object_0",
      "primitives": [
        {
          "attributes": {
            "NORMAL": 1,
            "POSITION": 0
          },
          "indices": 2,
          "material": 0,
          "mode": 4
        }
      ]
    },
    {
      "name": "Object_1",
      "primitives": [
        {
          "attributes": {
            "NORMAL": 4,
            "POSITION": 3
          },
          "indices": 5,
          "material": 1,
          "mode": 4
        }
      ]
    },
    {
      "name": "Object_2",
      "primitives": [
        {
          "attributes": {
            "NORMAL": 7,
            "POSITION": 6
          },
          "indices": 8,
          "material": 2,
          "mode": 4
        }
      ]
    },
    {
      "name": "Object_3",
      "primitives": [
        {
          "attributes": {
            "NORMAL": 10,
            "POSITION": 9
          },
          "indices": 11,
          "material": 3,
          "mode": 4
        }
      ]
    },
    {
      "name": "Object_4",
      "primitives": [
        {
          "attributes": {
            "NORMAL": 13,
            "POSITION": 12
          },
          "indices": 14,
          "material": 4,
          "mode": 4
        }
      ]
    },
    {
      "name": "Object_5",
      "primitives": [
        {
          "attributes": {
            "NORMAL": 16,
            "POSITION": 15
          },
          "indices": 17,
          "material": 5,
          "mode": 4
        }
      ]
    }
  ],
  "nodes": [
    {
      "children": [
        1
      ],
      "matrix": [
        1.0,
        0.0,
        0.0,
        0.0,
        0.0,
        2.220446049250313e-16,
        -1.0,
        0.0,
        0.0,
        1.0,
        2.220446049250313e-16,
        0.0,
        0.0,
        0.0,
        0.0,
        1.0
      ],
      "name": "Sketchfab_model"
    },
    {
      "children": [
        2
      ],
      "name": "root"
    },
    {
      "children": [
        3
      ],
      "matrix": [
        1.0,
        0.0,
        0.0,
        0.0,
        0.0,
        2.220446049250313e-16,
        1.0,
        0.0,
        0.0,
        -1.0,
        2.220446049250313e-16,
        0.0,
        0.0,
        0.0,
        0.0,
        1.0
      ],
      "name": "GLTF_SceneRootNode"
    },
    {
      "children": [
        4,
        5,
        6,
        7,
        8,
        9
      ],
      "name": "football_field_0"
    },
    {
      "mesh": 0,
      "name": "Object_4"
    },
    {
      "mesh": 1,
      "name": "Object_5"
    },
    {
      "mesh": 2,
      "name": "Object_6"
    },
    {
      "mesh": 3,
      "name": "Object_7"
    },
    {
      "mesh": 4,
      "name": "Object_8"
    },
    {
      "mesh": 5,
      "name": "Object_9"
    }
  ],
  "scene": 0,
  "scenes": [
    {
      "name": "Sketchfab_Scene",
      "nodes": [
        0
      ]
    }
  ]
}
