{
  "accessors": [
    {
      "bufferView": 2,
      "componentType": 5126,
      "count": 39454,
      "max": [
        1.1509448289871216,
        2.938293695449829,
        0.9872313737869263
      ],
      "min": [
        -1.1509449481964111,
        5.960463056453591e-08,
        -0.9872314929962158
      ],
      "type": "VEC3"
    },
    {
      "bufferView": 2,
      "byteOffset": 473448,
      "componentType": 5126,
      "count": 39454,
      "max": [
        0.9999075531959534,
        0.9998837113380432,
        0.9999068379402161
      ],
      "min": [
        -0.9999076128005981,
        -1.0,
        -0.9999067783355713
      ],
      "type": "VEC3"
    },
    {
      "bufferView": 1,
      "componentType": 5126,
      "count": 39454,
      "max": [
        0.7500001192092896,
        1.0000001192092896
      ],
      "min": [
        0.2499999850988388,
        0.1874999701976776
      ],
      "type": "VEC2"
    },
    {
      "bufferView": 0,
      "componentType": 5125,
      "count": 59184,
      "type": "SCALAR"
    },
    {
      "bufferView": 2,
      "byteOffset": 946896,
      "componentType": 5126,
      "count": 2048,
      "max": [
        1.074910283088684,
        1.933658242225647,
        0.1819622963666916
      ],
      "min": [
        -1.0749104022979736,
        1.4432902336120605,
        -0.1819617748260498
      ],
      "type": "VEC3"
    },
    {
      "bufferView": 2,
      "byteOffset": 971472,
      "componentType": 5126,
      "count": 2048,
      "max": [
        0.9267314672470093,
        0.6984476447105408,
        0.9999071955680847
      ],
      "min": [
        -0.9267317056655884,
        -0.6971771717071533,
        -0.9999071955680847
      ],
      "type": "VEC3"
    },
    {
      "bufferView": 1,
      "byteOffset": 315632,
      "componentType": 5126,
      "count": 2048,
      "max": [
        0.53125,
        0.8125000596046448
      ],
      "min": [
        0.46874991059303284,
        0.6875
      ],
      "type": "VEC2"
    },
    {
      "bufferView": 0,
      "byteOffset": 236736,
      "componentType": 5125,
      "count": 3072,
      "type": "SCALAR"
    }
  ],
  "asset": {
    "extras": {
      "author": "anesbe89 (https://sketchfab.com/anesbe89)",
      "license": "CC-BY-4.0 (http://creativecommons.org/licenses/by/4.0/)",
      "source": "https://sketchfab.com/3d-models/kettlebell-2e09cbcbde964a658d51838e2f9866bb",
      "title": "kettlebell"
    },
    "generator": "Sketchfab-12.66.0",
    "version": "2.0"
  },
  "bufferViews": [
    {
      "buffer": 0,
      "byteLength": 249024,
      "name": "floatBufferViews",
      "target": 34963
    },
    {
      "buffer": 0,
      "byteLength": 332016,
      "byteOffset": 249024,
      "byteStride": 8,
      "name": "floatBufferViews",
      "target": 34962
    },
    {
      "buffer": 0,
      "byteLength": 996048,
      "byteOffset": 581040,
      "byteStride": 12,
      "name": "floatBufferViews",
      "target": 34962
    }
  ],
  "buffers": [
    {
      "byteLength": 1577088,
      "uri": "scene.bin"
    }
  ],
  "materials": [
    {
      "doubleSided": true,
      "name": "Black_texture",
      "pbrMetallicRoughness": {
        "baseColorFactor": [
          0.09291264615216242,
          0.09291264615216242,
          0.09291264615216242,
          1.0
        ],
        "metallicFactor": 0.73133082830199
      }
    },
    {
      "doubleSided": true,
      "name": "Color_texture",
      "pbrMetallicRoughness": {
        "baseColorFactor": [
          0.775209617965722,
          0.10166769398784754,
          0.10166769398784754,
          1.0
        ],
        "metallicFactor": 0.7374110014653218
      }
    }
  ],
  "meshes": [
    {
      "name": "Object_0",
      "primitives": [
        {
          "attributes": {
            "NORMAL": 1,
            "POSITION": 0,
            "TEXCOORD_0": 2
          },
          "indices": 3,
          "material": 0,
          "mode": 4
        }
      ]
    },
    {
      "name": "Object_1",
      "primitives": [
        {
          "attributes": {
            "NORMAL": 5,
            "POSITION": 4,
            "TEXCOORD_0": 6
          },
          "indices": 7,
          "material": 1,
          "mode": 4
        }
      ]
    }
  ],
  "nodes": [
    {
      "children": [
        1
      ],
      "matrix": [
        1.0,
        0.0,
        0.0,
        0.0,
        0.0,
        2.220446049250313e-16,
        -1.0,
        0.0,
        0.0,
        1.0,
        2.220446049250313e-16,
        0.0,
        0.0,
        0.0,
        0.0,
        1.0
      ],
      "name": "Sketchfab_model"
    },
    {
      "children": [
        2
      ],
      "name": "root"
    },
    {
      "children": [
        3
      ],
      "matrix": [
        1.0,
        0.0,
        0.0,
        0.0,
        0.0,
        2.220446049250313e-16,
        1.0,
        0.0,
        0.0,
        -1.0,
        2.220446049250313e-16,
        0.0,
        0.0,
        0.0,
        0.0,
        1.0
      ],
      "name": "GLTF_SceneRootNode"
    },
    {
      "children": [
        4,
        5
      ],
      "matrix": [
        0.5976465344429016,
        0.0,
        0.0,
        0.0,
        0.0,
        0.5976465344429016,
        0.0,
        0.0,
        0.0,
        0.0,
        0.5976465344429016,
        0.0,
        0.0,
        0.0,
        0.0,
        1.0
      ],
      "name": "kettlebell_0"
    },
    {
      "mesh": 0,
      "name": "Object_4"
    },
    {
      "mesh": 1,
      "name": "Object_5"
    }
  ],
  "scene": 0,
  "scenes": [
    {
      "name": "Sketchfab_Scene",
      "nodes": [
        0
      ]
    }
  ]
}
