{
  "accessors": [
    {
      "bufferView": 1,
      "componentType": 5126,
      "count": 146,
      "max": [
        14.250495910644531,
        12.00744915008545,
        9.715652465820313
      ],
      "min": [
        -14.250495910644531,
        -8.085405349731445,
        5.738195896148682
      ],
      "type": "VEC3"
    },
    {
      "bufferView": 0,
      "componentType": 5125,
      "count": 146,
      "type": "SCALAR"
    },
    {
      "bufferView": 1,
      "byteOffset": 1752,
      "componentType": 5126,
      "count": 8109,
      "max": [
        14.276993751525879,
        12.055743217468262,
        9.801060676574707
      ],
      "min": [
        -14.276993751525879,
        -8.115425109863281,
        -0.04972400143742561
      ],
      "type": "VEC3"
    },
    {
      "bufferView": 1,
      "byteOffset": 99060,
      "componentType": 5126,
      "count": 8109,
      "max": [
        1.0,
        1.0,
        1.0
      ],
      "min": [
        -1.0,
        -1.0,
        -1.0
      ],
      "type": "VEC3"
    },
    {
      "bufferView": 0,
      "byteOffset": 584,
      "componentType": 5125,
      "count": 16260,
      "type": "SCALAR"
    },
    {
      "bufferView": 1,
      "byteOffset": 196368,
      "componentType": 5126,
      "count": 65533,
      "max": [
        14.343989372253418,
        12.033422470092773,
        9.877556800842285
      ],
      "min": [
        -14.328767776489258,
        -8.126601219177246,
        7.42917013168335
      ],
      "type": "VEC3"
    },
    {
      "bufferView": 1,
      "byteOffset": 982764,
      "componentType": 5126,
      "count": 65533,
      "max": [
        0.26721149682998657,
        0.9895962476730347,
        0.999605119228363
      ],
      "min": [
        -0.26721149682998657,
        -0.9874120950698853,
        0.13889946043491364
      ],
      "type": "VEC3"
    },
    {
      "bufferView": 0,
      "byteOffset": 65624,
      "componentType": 5125,
      "count": 120483,
      "type": "SCALAR"
    },
    {
      "bufferView": 1,
      "byteOffset": 1769160,
      "componentType": 5126,
      "count": 27437,
      "max": [
        14.328767776489258,
        12.033422470092773,
        9.877556800842285
      ],
      "min": [
        -14.343989372253418,
        -8.126601219177246,
        7.42917013168335
      ],
      "type": "VEC3"
    },
    {
      "bufferView": 1,
      "byteOffset": 2098404,
      "componentType": 5126,
      "count": 27437,
      "max": [
        0.26721149682998657,
        0.9895962476730347,
        0.999605119228363
      ],
      "min": [
        -0.26721060276031494,
        -0.9874120950698853,
        0.13889946043491364
      ],
      "type": "VEC3"
    },
    {
      "bufferView": 0,
      "byteOffset": 547556,
      "componentType": 5125,
      "count": 49533,
      "type": "SCALAR"
    },
    {
      "bufferView": 1,
      "byteOffset": 2427648,
      "componentType": 5126,
      "count": 22203,
      "max": [
        14.303033828735352,
        12.1400785446167,
        9.859726905822754
      ],
      "min": [
        -14.303033828735352,
        -8.21217155456543,
        2.0384929180145264
      ],
      "type": "VEC3"
    },
    {
      "bufferView": 1,
      "byteOffset": 2694084,
      "componentType": 5126,
      "count": 22203,
      "max": [
        1.0,
        1.0,
        -0.0
      ],
      "min": [
        -1.0,
        -1.0,
        -0.0
      ],
      "type": "VEC3"
    },
    {
      "bufferView": 0,
      "byteOffset": 745688,
      "componentType": 5125,
      "count": 55062,
      "type": "SCALAR"
    },
    {
      "bufferView": 1,
      "byteOffset": 2960520,
      "componentType": 5126,
      "count": 558,
      "max": [
        -8.463120460510254,
        -7.762909889221191,
        6.158288955688477
      ],
      "min": [
        -12.701740264892578,
        -7.943811893463135,
        -0.04972400143742561
      ],
      "type": "VEC3"
    },
    {
      "bufferView": 1,
      "byteOffset": 2967216,
      "componentType": 5126,
      "count": 558,
      "max": [
        1.0,
        1.0,
        1.0
      ],
      "min": [
        -1.0,
        -1.0,
        -1.0
      ],
      "type": "VEC3"
    },
    {
      "bufferView": 0,
      "byteOffset": 965936,
      "componentType": 5125,
      "count": 1116,
      "type": "SCALAR"
    },
    {
      "bufferView": 1,
      "byteOffset": 2973912,
      "componentType": 5126,
      "count": 10339,
      "max": [
        14.377052307128906,
        12.124268531799316,
        7.495392799377441
      ],
      "min": [
        -14.377052307128906,
        -8.13502025604248,
        2.102281093597412
      ],
      "type": "VEC3"
    },
    {
      "bufferView": 1,
      "byteOffset": 3097980,
      "componentType": 5126,
      "count": 10339,
      "max": [
        1.0,
        0.9873600006103516,
        0.0
      ],
      "min": [
        -1.0,
        -0.9873418807983398,
        0.0
      ],
      "type": "VEC3"
    },
    {
      "bufferView": 0,
      "byteOffset": 970400,
      "componentType": 5125,
      "count": 24336,
      "type": "SCALAR"
    },
    {
      "bufferView": 1,
      "byteOffset": 3222048,
      "componentType": 5126,
      "count": 7271,
      "max": [
        24.45988655090332,
        24.45988655090332,
        9.898176193237305
      ],
      "min": [
        -24.45988655090332,
        -24.45988655090332,
        -0.04972400143742561
      ],
      "type": "VEC3"
    },
    {
      "bufferView": 1,
      "byteOffset": 3309300,
      "componentType": 5126,
      "count": 7271,
      "max": [
        1.0,
        1.0,
        1.0
      ],
      "min": [
        -1.0,
        -1.0,
        -1.0
      ],
      "type": "VEC3"
    },
    {
      "bufferView": 0,
      "byteOffset": 1067744,
      "componentType": 5125,
      "count": 14160,
      "type": "SCALAR"
    },
    {
      "bufferView": 1,
      "byteOffset": 3396552,
      "componentType": 5126,
      "count": 29656,
      "max": [
        13.892387390136719,
        11.542746543884277,
        5.002986907958984
      ],
      "min": [
        -13.826813697814941,
        -6.5956711769104,
        -0.0013379999436438084
      ],
      "type": "VEC3"
    },
    {
      "bufferView": 1,
      "byteOffset": 3752424,
      "componentType": 5126,
      "count": 29656,
      "max": [
        1.0,
        1.0,
        1.0
      ],
      "min": [
        -1.0,
        -0.9960047602653503,
        -1.0
      ],
      "type": "VEC3"
    },
    {
      "bufferView": 0,
      "byteOffset": 1124384,
      "componentType": 5125,
      "count": 45528,
      "type": "SCALAR"
    },
    {
      "bufferView": 1,
      "byteOffset": 4108296,
      "componentType": 5126,
      "count": 5662,
      "max": [
        14.568510055541992,
        12.06865119934082,
        7.272212028503418
      ],
      "min": [
        -14.568510055541992,
        -8.388397216796875,
        -0.04972400143742561
      ],
      "type": "VEC3"
    },
    {
      "bufferView": 1,
      "byteOffset": 4176240,
      "componentType": 5126,
      "count": 5662,
      "max": [
        1.0,
        1.0,
        1.0
      ],
      "min": [
        -1.0,
        -1.0,
        -1.0
      ],
      "type": "VEC3"
    },
    {
      "bufferView": 0,
      "byteOffset": 1306496,
      "componentType": 5125,
      "count": 11460,
      "type": "SCALAR"
    },
    {
      "bufferView": 1,
      "byteOffset": 4244184,
      "componentType": 5126,
      "count": 7580,
      "max": [
        14.603699684143066,
        12.253240585327148,
        9.623022079467773
      ],
      "min": [
        -14.603699684143066,
        -8.369823455810547,
        -0.01501499954611063
      ],
      "type": "VEC3"
    },
    {
      "bufferView": 1,
      "byteOffset": 4335144,
      "componentType": 5126,
      "count": 7580,
      "max": [
        1.0,
        1.0,
        1.0
      ],
      "min": [
        -1.0,
        -1.0,
        -1.0
      ],
      "type": "VEC3"
    },
    {
      "bufferView": 0,
      "byteOffset": 1352336,
      "componentType": 5125,
      "count": 11568,
      "type": "SCALAR"
    }
  ],
  "asset": {
    "extras": {
      "author": "thetrady (https://sketchfab.com/thetrady)",
      "license": "CC-BY-4.0 (http://creativecommons.org/licenses/by/4.0/)",
      "source": "https://sketchfab.com/3d-models/hangar-e6886422f7094c4592834f1c34b6cd0f",
      "title": "Hangar"
    },
    "generator": "Sketchfab-12.67.0",
    "version": "2.0"
  },
  "bufferViews": [
    {
      "buffer": 0,
      "byteLength": 1398608,
      "name": "floatBufferViews",
      "target": 34963
    },
    {
      "buffer": 0,
      "byteLength": 4426104,
      "byteOffset": 1398608,
      "byteStride": 12,
      "name": "floatBufferViews",
      "target": 34962
    }
  ],
  "buffers": [
    {
      "byteLength": 5824712,
      "uri": "scene.bin"
    }
  ],
  "materials": [
    {
      "doubleSided": true,
      "name": "None",
      "pbrMetallicRoughness": {
        "metallicFactor": 0.14195884146341464,
        "roughnessFactor": 0.6
      }
    }
  ],
  "meshes": [
    {
      "name": "Object_0",
      "primitives": [
        {
          "attributes": {
            "POSITION": 0
          },
          "indices": 1,
          "material": 0,
          "mode": 1
        }
      ]
    },
    {
      "name": "Object_1",
      "primitives": [
        {
          "attributes": {
            "NORMAL": 3,
            "POSITION": 2
          },
          "indices": 4,
          "material": 0,
          "mode": 4
        }
      ]
    },
    {
      "name": "Object_2",
      "primitives": [
        {
          "attributes": {
            "NORMAL": 6,
            "POSITION": 5
          },
          "indices": 7,
          "material": 0,
          "mode": 4
        }
      ]
    },
    {
      "name": "Object_3",
      "primitives": [
        {
          "attributes": {
            "NORMAL": 9,
            "POSITION": 8
          },
          "indices": 10,
          "material": 0,
          "mode": 4
        }
      ]
    },
    {
      "name": "Object_4",
      "primitives": [
        {
          "attributes": {
            "NORMAL": 12,
            "POSITION": 11
          },
          "indices": 13,
          "material": 0,
          "mode": 4
        }
      ]
    },
    {
      "name": "Object_5",
      "primitives": [
        {
          "attributes": {
            "NORMAL": 15,
            "POSITION": 14
          },
          "indices": 16,
          "material": 0,
          "mode": 4
        }
      ]
    },
    {
      "name": "Object_6",
      "primitives": [
        {
          "attributes": {
            "NORMAL": 18,
            "POSITION": 17
          },
          "indices": 19,
          "material": 0,
          "mode": 4
        }
      ]
    },
    {
      "name": "Object_7",
      "primitives": [
        {
          "attributes": {
            "NORMAL": 21,
            "POSITION": 20
          },
          "indices": 22,
          "material": 0,
          "mode": 4
        }
      ]
    },
    {
      "name": "Object_8",
      "primitives": [
        {
          "attributes": {
            "NORMAL": 24,
            "POSITION": 23
          },
          "indices": 25,
          "material": 0,
          "mode": 4
        }
      ]
    },
    {
      "name": "Object_9",
      "primitives": [
        {
          "attributes": {
            "NORMAL": 27,
            "POSITION": 26
          },
          "indices": 28,
          "material": 0,
          "mode": 4
        }
      ]
    },
    {
      "name": "Object_10",
      "primitives": [
        {
          "attributes": {
            "NORMAL": 30,
            "POSITION": 29
          },
          "indices": 31,
          "material": 0,
          "mode": 4
        }
      ]
    }
  ],
  "nodes": [
    {
      "children": [
        1
      ],
      "matrix": [
        1.2745819091796875,
        0.0,
        0.0,
        0.0,
        0.0,
        2.8301403646839585e-16,
        -1.2745819091796875,
        0.0,
        0.0,
        1.2745819091796875,
        2.8301403646839585e-16,
        0.0,
        0.0,
        0.0,
        0.0,
        1.0
      ],
      "name": "Sketchfab_model"
    },
    {
      "children": [
        2,
        3,
        4,
        5,
        6,
        7,
        8,
        9,
        10,
        11,
        12
      ],
      "name": "Hangar.obj.cleaner.materialmerger.gles"
    },
    {
      "mesh": 0,
      "name": "Object_2"
    },
    {
      "mesh": 1,
      "name": "Object_3"
    },
    {
      "mesh": 2,
      "name": "Object_4"
    },
    {
      "mesh": 3,
      "name": "Object_5"
    },
    {
      "mesh": 4,
      "name": "Object_6"
    },
    {
      "mesh": 5,
      "name": "Object_7"
    },
    {
      "mesh": 6,
      "name": "Object_8"
    },
    {
      "mesh": 7,
      "name": "Object_9"
    },
    {
      "mesh": 8,
      "name": "Object_10"
    },
    {
      "mesh": 9,
      "name": "Object_11"
    },
    {
      "mesh": 10,
      "name": "Object_12"
    }
  ],
  "scene": 0,
  "scenes": [
    {
      "name": "Sketchfab_Scene",
      "nodes": [
        0
      ]
    }
  ]
}
